<svg width="349" height="93" fill="none" xmlns="http://www.w3.org/2000/svg"><g clip-path="url(#a)"><g clip-path="url(#b)" fill="#18191F"><path d="M0 78.759V1.632h17.232v60.723h33.286v16.404H0ZM110.106 63.17a20.943 20.943 0 0 1-3.084 6.617c-1.361 2.084-3.084 3.897-5.261 5.528-2.176 1.631-4.534 2.81-7.346 3.716-2.812.906-5.895 1.36-9.342 1.36-3.718 0-7.255-.635-10.702-1.995-3.446-1.268-6.44-3.172-9.07-5.619-2.63-2.447-4.716-5.438-6.167-9.063-1.36-3.534-2.086-7.613-2.086-12.144 0-4.35.726-8.248 2.267-11.782 1.452-3.535 3.447-6.526 5.896-8.973 2.54-2.447 5.35-4.35 8.616-5.71 3.265-1.36 6.62-1.994 10.158-1.994 8.435 0 15.056 2.447 19.862 7.25 4.807 4.895 7.256 11.692 7.256 20.484 0 1.178 0 2.265-.091 3.353-.09 1.087-.181 1.631-.181 1.813h-37.73c.091 1.54.454 2.9 1.18 4.169A15.314 15.314 0 0 0 77 63.442c1.089.907 2.45 1.632 3.9 2.176 1.451.543 2.993.725 4.535.725 3.084 0 5.442-.635 7.165-1.994 1.723-1.36 2.993-2.991 3.719-5.076l13.786 3.897ZM95.141 45.225c-.091-.997-.273-2.084-.726-3.172a6.753 6.753 0 0 0-1.905-2.9c-.907-.906-1.995-1.631-3.355-2.175-1.36-.544-2.993-.906-4.989-.906-1.723 0-3.265.271-4.534.906-1.27.634-2.359 1.269-3.266 2.175-.906.906-1.632 1.813-2.086 2.9-.453 1.088-.725 2.175-.816 3.172h21.677ZM175.044 69.061c0 2.447.091 4.532.182 6.254.09 1.722.181 2.81.272 3.444h-15.872c-.091-.363-.182-1.088-.272-2.085-.091-.997-.182-2.084-.182-3.172-1.269 1.903-3.174 3.444-5.714 4.622-2.539 1.179-5.532 1.813-8.797 1.813-3.809 0-7.437-.725-10.702-2.084-3.265-1.45-6.077-3.354-8.526-5.892-2.358-2.537-4.263-5.528-5.623-8.972-1.27-3.535-1.905-7.341-1.905-11.42 0-3.988.635-7.703 1.996-11.147 1.36-3.444 3.083-6.435 5.442-8.973 2.358-2.538 5.079-4.531 8.253-5.89 3.174-1.451 6.711-2.085 10.521-2.085 2.358 0 4.353.18 5.986.634 1.632.453 3.083.906 4.262 1.45a11.599 11.599 0 0 1 2.812 1.813c.726.634 1.179 1.269 1.542 1.722V0h16.325v69.061ZM134.503 51.66c0 2.266.363 4.169.998 5.891.634 1.631 1.541 3.081 2.63 4.169 1.088 1.088 2.449 1.994 3.9 2.538 1.451.544 2.993.906 4.625.906 1.633 0 3.175-.272 4.626-.906 1.451-.544 2.811-1.45 3.9-2.538 1.088-1.087 1.995-2.538 2.63-4.169.635-1.631.998-3.625.998-5.891s-.363-4.17-.998-5.891c-.635-1.631-1.542-3.082-2.63-4.17-1.089-1.087-2.449-1.993-3.9-2.537a13.073 13.073 0 0 0-4.626-.816c-1.632 0-3.174.272-4.625.816-1.451.544-2.812 1.36-3.9 2.538-1.089 1.087-1.996 2.538-2.63 4.169-.635 1.722-.998 3.625-.998 5.891ZM193.728 99.513l12.334-28.096-22.765-46.765H201.8l13.151 28.911 11.971-28.911h17.505l-33.286 74.861h-17.413ZM327.505 78.759h-16.507V24.652h16.507v54.107Zm.09-44.32c0-1.54.273-2.9.817-4.259a9.916 9.916 0 0 1 2.267-3.444 10.454 10.454 0 0 1 3.356-2.265c1.27-.544 2.63-.816 4.172-.816 3.084 0 5.623.997 7.709 3.081 2.086 2.085 3.084 4.622 3.084 7.704 0 1.54-.272 2.9-.816 4.169a10.453 10.453 0 0 1-2.268 3.353 9.915 9.915 0 0 1-3.446 2.266 11.158 11.158 0 0 1-4.263.816c-3.084 0-5.623-.997-7.619-3.082-1.995-1.903-2.993-4.44-2.993-7.522ZM242.794 68.246l-4.716 10.422h59.044V68.246h-54.328ZM252.771 46.131l-4.716 10.423h49.066V46.131h-44.35ZM262.385 24.742l-4.716 10.513h39.453V24.742h-34.737Z"/></g></g><defs><clipPath id="a"><path fill="#fff" d="M0 0h349v93H0z"/></clipPath><clipPath id="b"><path fill="#fff" d="M0 0h349v93H0z"/></clipPath></defs></svg>